HIERARCHY
ROOT root
{
	OFFSET	0	13.1	24.9
	CHANNELS 6  Xposition Yposition Zposition Xrotation Yrotation Zrotation
	JOINT spine_1
	{
		OFFSET	0	9.99999	0
		CHANNELS 3  Xrotation Yrotation Zrotation
		JOINT spine_2
		{
			OFFSET	0	112	-10
			CHANNELS 3  Xrotation Yrotation Zrotation
			JOINT spine_3
			{
				OFFSET	0	206.5	19.3
				CHANNELS 3  Xrotation Yrotation Zrotation
				JOINT spine_4
				{
					OFFSET	0	110.4	14.6
					CHANNELS 3  Xrotation Yrotation Zrotation
					JOINT neck_1
					{
						OFFSET	0	71.8	-50.3
						CHANNELS 3  Xrotation Yrotation Zrotation
						JOINT neck_2
						{
							OFFSET	0	86.2	-25.8
							CHANNELS 3  Xrotation Yrotation Zrotation
							JOINT head_ee
							{
								OFFSET	0	179.8	-8.7
								CHANNELS 3  Xrotation Yrotation Zrotation
								End Site
								{
									OFFSET	1	0	0
								}
							}
						}
					}
					JOINT left_clavicle
					{
						OFFSET	-43.2	22.4	-70.8
						CHANNELS 3  Xrotation Yrotation Zrotation
						JOINT left_shoulder
						{
							OFFSET	-93.9	-5.79999	48.7
							CHANNELS 3  Xrotation Yrotation Zrotation
							JOINT left_elbow
							{
								OFFSET	-291.4	-30.8	15.2
								CHANNELS 3  Xrotation Yrotation Zrotation
								JOINT left_lowarm_twist
								{
									OFFSET	-110.7	-3.89999	13.6
									CHANNELS 3  Xrotation Yrotation Zrotation
									JOINT left_hand
									{
										OFFSET	-110.7	-3.89999	13.6
										CHANNELS 3  Xrotation Yrotation Zrotation
										JOINT left_ee
										{
											OFFSET	-80.8	-5.10001	12.1
											CHANNELS 3  Xrotation Yrotation Zrotation
											End Site
											{
												OFFSET	1	0	0
											}
										}
									}
								}
							}
						}
					}
					JOINT right_clavicle
					{
						OFFSET	43.2	22.4	-70.8
						CHANNELS 3  Xrotation Yrotation Zrotation
						JOINT right_shoulder
						{
							OFFSET	93.9	-5.79999	48.7
							CHANNELS 3  Xrotation Yrotation Zrotation
							JOINT right_elbow
							{
								OFFSET	291.4	-30.8	15.2
								CHANNELS 3  Xrotation Yrotation Zrotation
								JOINT right_lowarm_twist
								{
									OFFSET	110.7	-3.89999	13.6
									CHANNELS 3  Xrotation Yrotation Zrotation
									JOINT right_hand
									{
										OFFSET	110.7	-3.89999	13.6
										CHANNELS 3  Xrotation Yrotation Zrotation
										JOINT right_ee
										{
											OFFSET	80.8	-5.10001	12.1
											CHANNELS 3  Xrotation Yrotation Zrotation
											End Site
											{
												OFFSET	1	0	0
											}
										}
									}
								}
							}
						}
					}
				}
			}
		}
	}
	JOINT left_hip
	{
		OFFSET	-82.8	-127.5	0.300001
		CHANNELS 3  Xrotation Yrotation Zrotation
		JOINT left_knee
		{
			OFFSET	-28.2	-396.7	2.2
			CHANNELS 3  Xrotation Yrotation Zrotation
			JOINT left_ankle
			{
				OFFSET	-11.7	-411.3	35.4
				CHANNELS 3  Xrotation Yrotation Zrotation
				JOINT left_toes
				{
					OFFSET	0	-60	-88.6
					CHANNELS 3  Xrotation Yrotation Zrotation
					JOINT left_foot_ee
					{
						OFFSET	-22.5	-16.5	-42.2
						CHANNELS 3  Xrotation Yrotation Zrotation
						End Site
						{
							OFFSET	1	0	0
						}
					}
				}
			}
		}
	}
	JOINT right_hip
	{
		OFFSET	82.8	-127.5	0.300001
		CHANNELS 3  Xrotation Yrotation Zrotation
		JOINT right_knee
		{
			OFFSET	28.2	-396.7	2.2
			CHANNELS 3  Xrotation Yrotation Zrotation
			JOINT right_ankle
			{
				OFFSET	11.7	-411.3	35.4
				CHANNELS 3  Xrotation Yrotation Zrotation
				JOINT right_toes
				{
					OFFSET	0	-60	-88.6
					CHANNELS 3  Xrotation Yrotation Zrotation
					JOINT right_foot_ee
					{
						OFFSET	22.5	-16.5	-42.2
						CHANNELS 3  Xrotation Yrotation Zrotation
						End Site
						{
							OFFSET	1	0	0
						}
					}
				}
			}
		}
	}
}
MOTION
Frames: 13
Frame Time: 0.02
3511.92811714 723.276 -1499.19248304 0.454500699419 56.1363885696 -5.04651320193 0.433707 0.622129 3.19823 0.439301 0.417465 3.23129 0.465336 -0.244656 3.24893 0.45071 0.271244 3.24682 -9.28625 16.7827 -3.59038 -9.55884 33.9659 0.66162 -0.0 0.0 -0.0 -5.92503 23.4487 -5.45905 -6.44892 -7.05053 70.1115 1.72855 -40.5689 0.638918 -10.4147 -0.481137 1.23973 -0.692153 2.20731 -3.66692 -0.0 0.0 -0.0 13.3187 26.2902 -26.38 -3.75272 20.3994 -68.1211 0.754556 20.4949 -0.136413 17.3544 -0.281653 2.19052 -1.79773 -9.11683 7.81303 0.0 0.0 0.0 16.4661 18.9104 -11.6154 -40.5826 -0.504247 6.07964 40.7879 7.88222 -4.93208 -34.8752 0.0 0.0 -0.0 0.0 -0.0 -7.98911 29.6756 0.386752 -12.6363 -0.310689 -1.91041 41.5908 -5.71549 4.99336 16.3624 -0.0 -0.0 0.0 0.0 0.0 
3512.7830108 723.276 -1501.27298519 0.433114458833 54.2159770339 -5.02046505068 0.433707 0.622129 3.19823 0.439301 0.417465 3.23129 0.465336 -0.244656 3.24893 0.45071 0.271244 3.24682 -9.28625 16.7827 -3.59038 -9.55884 33.9659 0.66162 -0.0 0.0 -0.0 -5.92503 23.4487 -5.45905 -6.44892 -7.05053 70.1115 1.72855 -40.5689 0.638918 -10.4147 -0.481137 1.23973 -0.692153 2.20731 -3.66692 -0.0 0.0 -0.0 13.3187 26.2902 -26.38 -3.75272 20.3994 -68.1211 0.754556 20.4949 -0.136413 17.3544 -0.281653 2.19052 -1.79773 -9.11683 7.81303 0.0 0.0 0.0 16.4661 18.9104 -11.6154 -40.5826 -0.504247 6.07964 40.7879 7.88222 -4.93208 -34.8752 0.0 0.0 -0.0 0.0 -0.0 -7.98911 29.6756 0.386752 -12.6363 -0.310689 -1.91041 41.5908 -5.71549 4.99336 16.3624 -0.0 -0.0 0.0 0.0 0.0 
3512.42080165 723.276 -1500.41555828 0.4416551088 55.0106428314 -5.03094075175 0.433707 0.622129 3.19823 0.439301 0.417465 3.23129 0.465336 -0.244656 3.24893 0.45071 0.271244 3.24682 -9.28625 16.7827 -3.59038 -9.55884 33.9659 0.66162 -0.0 0.0 -0.0 -5.92503 23.4487 -5.45905 -6.44892 -7.05053 70.1115 1.72855 -40.5689 0.638918 -10.4147 -0.481137 1.23973 -0.692153 2.20731 -3.66692 -0.0 0.0 -0.0 13.3187 26.2902 -26.38 -3.75272 20.3994 -68.1211 0.754556 20.4949 -0.136413 17.3544 -0.281653 2.19052 -1.79773 -9.11683 7.81303 0.0 0.0 0.0 16.4661 18.9104 -11.6154 -40.5826 -0.504247 6.07964 40.7879 7.88222 -4.93208 -34.8752 0.0 0.0 -0.0 0.0 -0.0 -7.98911 29.6756 0.386752 -12.6363 -0.310689 -1.91041 41.5908 -5.71549 4.99336 16.3624 -0.0 -0.0 0.0 0.0 0.0 
3504.62571759 721.571 -1497.87233011 -0.231594180952 59.247552747 -4.5990974389 0.590002 0.734968 3.22428 0.59563 0.528422 3.26445 0.628151 -0.133124 3.30422 0.613129 0.390099 3.28383 -8.41234 16.8083 -3.87313 -8.54923 34.1424 0.0864224 -0.0 0.0 -0.0 -5.75779 23.0578 -5.33504 -8.29564 -7.25181 70.8391 1.41327 -34.9935 0.445535 -9.85435 -0.449561 1.17538 -0.767282 3.27799 -3.699 -0.0 0.0 -0.0 13.5733 26.6188 -26.9304 -1.78283 20.8406 -67.5361 0.836715 22.5131 -0.166535 17.2045 -0.28208 2.17137 -1.94622 -10.2029 8.25599 0.0 0.0 0.0 18.2689 18.8243 -12.1193 -39.122 -0.411856 5.87499 40.5881 8.40028 -4.91746 -36.9742 0.0 0.0 -0.0 0.0 -0.0 -8.84613 31.5317 0.934374 -12.237 -0.307357 -1.84925 41.4674 -5.16182 4.98252 14.4092 -0.0 -0.0 0.0 0.0 0.0 
3499.1038779 726.742 -1494.45779644 -1.12199395223 63.6134044858 -4.02537935112 0.613119 0.801057 3.39309 0.619334 0.583653 3.43712 0.65701 -0.111607 3.48448 0.640339 0.439767 3.45845 -8.12053 17.7657 -2.08427 -8.26813 34.68 1.99661 -0.0 0.0 -0.0 -5.8693 22.8665 -5.54761 -10.4974 -5.47323 71.5868 1.32661 -33.3099 0.396883 -9.59355 -0.435079 1.14533 -0.818978 3.8017 -3.81211 -0.0 0.0 -0.0 13.734 26.9474 -27.2624 1.15446 21.3911 -68.3202 0.97069 25.6802 -0.221255 17.9944 -0.27927 2.27223 -2.03055 -10.1574 8.82404 0.0 0.0 0.0 18.8082 18.0087 -12.3666 -34.5758 -0.158215 5.22425 40.7621 6.70223 -4.92562 -38.3242 0.0 0.0 -0.0 0.0 -0.0 -9.46399 31.6761 1.22361 -10.4681 -0.287472 -1.57857 41.5565 -8.87802 5.00259 12.5306 -0.0 -0.0 0.0 0.0 0.0 
3490.45654376 727.952 -1488.54346502 -1.48666722169 65.8723479102 -3.91349721125 0.641141 0.885581 3.48579 0.647656 0.662119 3.53499 0.691342 -0.0518803 3.59601 0.673671 0.516328 3.55918 -7.98536 18.0385 -1.88331 -8.12062 35.0373 2.2155 -0.0 0.0 -0.0 -5.91242 23.7377 -5.35796 -13.1371 -4.54454 72.5885 1.24931 -31.7509 0.355309 -9.23427 -0.415355 1.10382 -0.967413 4.55518 -4.46087 -0.0 0.0 -0.0 13.7977 27.131 -27.3868 3.33692 22.0387 -68.4296 1.11303 28.8697 -0.286507 18.1517 -0.278544 2.29231 -2.05566 -10.0164 9.0555 0.0 0.0 0.0 19.8385 17.0944 -12.0124 -32.6321 -0.0657185 4.94041 39.6287 4.57213 -4.82566 -39.0401 0.0 0.0 -0.0 0.0 -0.0 -10.7628 33.3852 2.1541 -9.91103 -0.279479 -1.49346 41.1626 -8.88147 4.96931 13.1208 -0.0 -0.0 0.0 0.0 0.0 
3483.95595473 724.695 -1482.10876097 -3.19484082698 68.7406375529 -2.17352792788 0.678726 0.8295 3.58618 0.68568 0.599776 3.63162 0.726507 -0.130027 3.67845 0.707913 0.452152 3.6529 -7.31084 17.0616 -2.49788 -7.32113 33.5606 1.14244 -0.0 0.0 -0.0 -6.12899 23.5142 -5.72642 -15.8056 -3.93901 74.8981 0.950262 -25.2074 0.212478 -9.90489 -0.452383 1.1812 -1.25396 6.2837 -5.57351 -0.0 0.0 -0.0 13.9023 26.8479 -27.6675 6.43411 22.789 -68.6522 1.21084 30.9547 -0.33529 18.0305 -0.279108 2.27684 -1.85786 -6.97364 9.22563 0.0 0.0 0.0 20.5935 16.6749 -11.01 -28.3017 0.105358 4.29803 40.557 3.5374 -4.90702 -39.9343 0.0 0.0 -0.0 0.0 -0.0 -11.2166 35.1025 2.88874 -8.98963 -0.264445 -1.35288 41.0069 -8.29978 4.95279 15.5323 -0.0 -0.0 0.0 0.0 0.0 
3473.99380781 724.264 -1477.2182366 -6.26830823023 70.5909792259 0.608336070996 1.04434 0.970191 3.64668 1.05144 0.736341 3.70093 1.10128 0.0151382 3.77334 1.08194 0.610457 3.72373 -7.31215 16.4431 -2.32246 -7.32193 32.2823 1.17847 -0.0 0.0 -0.0 -5.6244 23.2952 -5.08032 -17.7079 -3.43607 73.0787 0.824863 -22.2254 0.162024 -8.80967 -0.392381 1.05461 -0.91997 7.87589 -2.68518 -0.0 0.0 -0.0 14.2539 27.2319 -28.4384 7.79249 22.9281 -68.0963 1.2993 32.7652 -0.381991 17.7327 -0.280355 2.23882 -1.39681 -4.94788 7.12174 0.0 0.0 0.0 20.4237 11.627 -10.7496 -20.2324 0.292804 3.0749 38.9927 -4.80143 -4.84091 -40.1862 0.0 0.0 -0.0 0.0 -0.0 -11.9201 35.2631 4.15965 -7.75525 -0.240763 -1.16494 41.2274 -7.16825 4.96653 16.5337 -0.0 -0.0 0.0 0.0 0.0 
3462.45471125 723.475 -1470.45998652 -8.80520539689 72.909536918 2.87312981414 1.29774 0.925306 3.60222 1.3047 0.69437 3.65371 1.35063 -0.000906728 3.71902 1.33181 0.586052 3.67261 -7.79849 15.9116 -2.49428 -7.86077 31.4585 1.03586 -0.0 0.0 -0.0 -5.72832 23.7341 -5.10238 -19.4897 -1.45745 73.6036 0.779628 -21.1167 0.145319 -8.38812 -0.369935 1.00558 -1.07171 6.85674 -4.12367 -0.0 0.0 -0.0 14.1567 26.7832 -28.2706 8.67384 22.9313 -67.7207 1.45535 35.7871 -0.469907 17.5156 -0.281139 2.2111 -1.3417 -5.09378 6.69078 0.0 0.0 0.0 20.7276 9.27054 -9.64567 -14.7607 0.321245 2.23617 37.5784 -5.21601 -4.72005 -40.1452 0.0 0.0 -0.0 0.0 -0.0 -12.4958 36.6152 5.06369 -7.88111 -0.243363 -1.18408 41.3349 -7.34809 4.97626 15.7767 -0.0 -0.0 0.0 0.0 0.0 
3462.45959456 723.475 -1470.33380698 -8.83747609156 72.9733441432 2.90688557363 1.29774 0.925306 3.60222 1.3047 0.69437 3.65371 1.35063 -0.000906728 3.71902 1.33181 0.586052 3.67261 -7.79849 15.9116 -2.49428 -7.86077 31.4585 1.03586 -0.0 0.0 -0.0 -5.72832 23.7341 -5.10238 -19.4897 -1.45745 73.6036 0.779628 -21.1167 0.145319 -8.38812 -0.369935 1.00558 -1.07171 6.85674 -4.12367 -0.0 0.0 -0.0 14.1567 26.7832 -28.2706 8.67384 22.9313 -67.7207 1.45535 35.7871 -0.469907 17.5156 -0.281139 2.2111 -1.3417 -5.09378 6.69078 0.0 0.0 0.0 20.7276 9.27054 -9.64567 -14.7607 0.321245 2.23617 37.5784 -5.21601 -4.72005 -40.1452 0.0 0.0 -0.0 0.0 -0.0 -12.4958 36.6152 5.06369 -7.88111 -0.243363 -1.18408 41.3349 -7.34809 4.97626 15.7767 -0.0 -0.0 0.0 0.0 0.0 
3454.1904991 723.181 -1464.5608499 -12.4414975615 74.7325124485 6.19285315185 1.6153 0.979115 3.7952 1.62301 0.735816 3.8497 1.67354 0.0253604 3.91921 1.65269 0.643538 3.86617 -7.75914 15.3341 -2.28955 -7.8127 30.2319 1.09261 -0.0 0.0 -0.0 -5.62364 23.7711 -4.94633 -20.6497 -0.918387 73.1911 0.6423 -17.6499 0.099721 -8.02642 -0.350963 0.963389 -1.05973 7.99762 -3.53772 -0.0 0.0 -0.0 13.9085 26.3684 -27.7431 10.0148 23.016 -67.3043 1.67839 39.7377 -0.606573 17.3953 -0.281529 2.19574 -0.762211 -1.38011 4.49395 0.0 0.0 0.0 21.1532 6.97118 -9.37333 -9.36481 0.270839 1.41009 38.5637 -6.13817 -4.82374 -40.1238 0.0 0.0 -0.0 0.0 -0.0 -13.1505 36.2804 5.71904 -7.36011 -0.232328 -1.10489 41.4484 -9.0478 4.99455 16.7883 -0.0 -0.0 0.0 0.0 0.0 
3454.28405212 723.181 -1463.50954873 -12.8503402751 75.2215505478 6.61615979425 1.6153 0.979115 3.7952 1.62301 0.735816 3.8497 1.67354 0.0253604 3.91921 1.65269 0.643538 3.86617 -7.75914 15.3341 -2.28955 -7.8127 30.2319 1.09261 -0.0 0.0 -0.0 -5.62364 23.7711 -4.94633 -20.6497 -0.918387 73.1911 0.6423 -17.6499 0.099721 -8.02642 -0.350963 0.963389 -1.05973 7.99762 -3.53772 -0.0 0.0 -0.0 13.9085 26.3684 -27.7431 10.0148 23.016 -67.3043 1.67839 39.7377 -0.606573 17.3953 -0.281529 2.19574 -0.762211 -1.38011 4.49395 0.0 0.0 0.0 21.1532 6.97118 -9.37333 -9.36481 0.270839 1.41009 38.5637 -6.13817 -4.82374 -40.1238 0.0 0.0 -0.0 0.0 -0.0 -13.1505 36.2804 5.71904 -7.36011 -0.232328 -1.10489 41.4484 -9.0478 4.99455 16.7883 -0.0 -0.0 0.0 0.0 0.0 
3448.09791413 726.663 -1459.17291729 -17.5066613654 77.0035804273 11.2528413082 1.6966 0.96019 3.83361 1.70449 0.714491 3.88683 1.75385 0.00314704 3.95185 1.73261 0.626746 3.90191 -8.75107 14.819 -3.33489 -8.88899 30.069 0.221859 -0.0 0.0 -0.0 -5.48486 23.7897 -4.74839 -20.7522 -1.52909 72.591 0.566258 -15.6694 0.0779175 -7.2318 -0.310226 0.870286 -0.4648 8.55948 0.553849 -0.0 0.0 -0.0 13.8744 25.9769 -27.712 10.7252 22.653 -66.8852 1.87168 42.8316 -0.734152 16.8561 -0.282877 2.12688 -0.228644 2.43364 2.56459 0.0 0.0 0.0 21.852 5.73764 -9.15117 -4.76276 0.166588 0.711749 36.3922 -4.20383 -4.59564 -40.1755 0.0 0.0 -0.0 0.0 -0.0 -12.6425 34.8894 5.67285 -7.39014 -0.232984 -1.10945 40.8707 -9.6116 4.94922 18.5521 -0.0 -0.0 0.0 0.0 0.0 
